<svg xmlns="http://www.w3.org/2000/svg" width="114.364" height="114.364" viewBox="0 0 114.364 114.364"><defs><style>.a{fill:#fff;}</style></defs><path class="a" d="M66.913,42.922,24.979,14.331A1.9,1.9,0,0,0,22,15.906V73.087a1.905,1.905,0,0,0,2.979,1.574L66.913,46.071a1.9,1.9,0,0,0,0-3.149Zm-41.1,26.557V19.514L62.456,44.5Z" transform="translate(19.933 12.685)"/><path class="a" d="M57.182,0a57.182,57.182,0,1,0,57.182,57.182A57.247,57.247,0,0,0,57.182,0Zm0,110.552a53.37,53.37,0,1,1,53.37-53.37A53.431,53.431,0,0,1,57.182,110.552Z"/></svg>