<svg xmlns="http://www.w3.org/2000/svg" width="28.8" height="28.8" viewBox="0 0 28.8 28.8"><defs><style>.a{fill:#bfa94f;}</style></defs><path class="a" d="M25.425,0H3.375A3.379,3.379,0,0,0,0,3.375v22.05A3.379,3.379,0,0,0,3.375,28.8h22.05A3.379,3.379,0,0,0,28.8,25.425V3.375A3.379,3.379,0,0,0,25.425,0ZM26.55,25.425a1.126,1.126,0,0,1-1.125,1.125H19.012V17.381h3.476l.574-3.487h-4.05V11.475A1.659,1.659,0,0,1,20.7,9.787h2.306V6.3H20.7a5.174,5.174,0,0,0-5.174,5.185v2.409H12.15v3.487h3.376V26.55H3.375A1.126,1.126,0,0,1,2.25,25.425V3.375A1.126,1.126,0,0,1,3.375,2.25h22.05A1.126,1.126,0,0,1,26.55,3.375Z"/></svg>