<svg xmlns="http://www.w3.org/2000/svg" width="282" height="82.098" viewBox="0 0 282 82.098"><defs><style>.a{fill:#a49a69;}.b{fill:#b8993a;}</style></defs><g transform="translate(-577.168 -271.085)"><g transform="translate(613.296 337.748)"><path class="a" d="M609,329.906h2.291a2.1,2.1,0,0,1,1.515.532,1.472,1.472,0,0,1,.411,1.051v.015a1.56,1.56,0,0,1-1.446,1.554l1.635,2.177h-.738l-1.544-2.07H609.6v2.07H609Zm2.238,2.717c.8,0,1.37-.411,1.37-1.1v-.015c0-.655-.5-1.051-1.362-1.051H609.6v2.162Z" transform="translate(-609.002 -329.814)"/><path class="a" d="M614.455,329.906h3.852v.548h-3.25v1.819h2.909v.548h-2.909v1.865h3.288v.548h-3.889Z" transform="translate(-608.267 -329.814)"/><path class="a" d="M619.244,334.467l.373-.441a2.541,2.541,0,0,0,1.827.754c.715,0,1.187-.381,1.187-.906v-.016c0-.495-.266-.776-1.386-1.012-1.226-.267-1.789-.662-1.789-1.538v-.015a1.574,1.574,0,0,1,1.751-1.455,2.782,2.782,0,0,1,1.873.655l-.349.465a2.339,2.339,0,0,0-1.539-.579c-.692,0-1.134.38-1.134.86v.015c0,.5.275.784,1.447,1.035s1.735.693,1.735,1.507v.016c0,.914-.76,1.507-1.819,1.507A3.12,3.12,0,0,1,619.244,334.467Z" transform="translate(-607.621 -329.823)"/><path class="a" d="M624.5,329.906h.6v5.328h-.6Z" transform="translate(-606.912 -329.814)"/><path class="a" d="M627.005,329.906h1.85a2.656,2.656,0,0,1,2.832,2.649v.015a2.668,2.668,0,0,1-2.832,2.665h-1.85Zm1.85,4.772a2.062,2.062,0,0,0,2.207-2.093v-.016a2.075,2.075,0,0,0-2.207-2.109h-1.25v4.217Z" transform="translate(-606.574 -329.814)"/><path class="a" d="M632.854,329.906h3.852v.548h-3.25v1.819h2.908v.548h-2.908v1.865h3.289v.548h-3.89Z" transform="translate(-605.785 -329.814)"/><path class="a" d="M637.952,329.906h.563l3.357,4.271v-4.271h.587v5.328h-.48l-3.442-4.369v4.369h-.584Z" transform="translate(-605.097 -329.814)"/><path class="a" d="M643.646,332.6v-.016a2.684,2.684,0,0,1,2.694-2.755,2.775,2.775,0,0,1,2.079.845l-.411.441a2.316,2.316,0,0,0-1.675-.731,2.089,2.089,0,0,0-2.063,2.185v.015a2.1,2.1,0,0,0,2.063,2.2,2.315,2.315,0,0,0,1.721-.768l.395.387a2.77,2.77,0,0,1-2.131.937A2.658,2.658,0,0,1,643.646,332.6Z" transform="translate(-604.329 -329.825)"/><path class="a" d="M649.455,329.906h.6v5.328h-.6Z" transform="translate(-603.546 -329.814)"/><path class="a" d="M653.989,329.872h.564l2.427,5.367h-.647l-.624-1.408h-2.9l-.632,1.408h-.616Zm1.484,3.418-1.21-2.718-1.219,2.718Z" transform="translate(-603.261 -329.819)"/><path class="a" d="M657.866,329.906h.6v4.772h3v.556h-3.6Z" transform="translate(-602.411 -329.814)"/></g><g transform="translate(742.528 271.085)"><path class="a" d="M722.874,271.961h10.794v2.153h-8.474V280.3h8.226v2.153h-8.226v8.171h8.474v2.153H722.874Z" transform="translate(-722.874 -270.967)"/><path class="a" d="M740.671,286.986l-2.511,5.907h-2.54l9.607-21.808,9.357,21.808h-2.567l-2.457-5.907Zm4.5-10.49-3.561,8.337h7.038Z" transform="translate(-721.155 -271.085)"/><path class="a" d="M775.279,282.356c.054,2.816-.25,5.134-2.154,7.343a10.283,10.283,0,0,1-7.7,3.478,10.767,10.767,0,1,1,8.943-17.032l-1.683,1.573a8.462,8.462,0,0,0-7.15-3.92,8.637,8.637,0,0,0-8.5,8.7,8.386,8.386,0,0,0,2.43,5.88,8.748,8.748,0,0,0,5.907,2.651c3.616,0,7.426-2.651,7.426-6.515h-6.183v-2.153Z" transform="translate(-718.579 -271.009)"/><path class="a" d="M779.505,290.622h5.743v2.153h-8.06V271.961h2.317Z" transform="translate(-715.548 -270.967)"/><path class="a" d="M787.768,271.961h10.794v2.153h-8.475V280.3h8.227v2.153h-8.227v8.171h8.475v2.153H787.768Z" transform="translate(-714.121 -270.967)"/><path class="a" d="M722.874,296.588H726.3c3.782,0,6.956,1.38,6.956,5.631a4.619,4.619,0,0,1-2.042,4.058,5.29,5.29,0,0,1,3.947,5.327c0,4.141-3.341,5.8-7.454,5.8h-4.831Zm2.32,9.165h.883c2.623,0,4.858-.3,4.858-3.534,0-3.147-1.988-3.478-4.831-3.478h-.91Zm0,9.5h2.317c2.6,0,5.329-.634,5.329-3.81,0-3.229-3.093-3.7-5.632-3.7h-2.014Z" transform="translate(-722.874 -267.645)"/><path class="a" d="M738.149,296.588h10.794v2.153h-8.475v6.184h8.227v2.153h-8.227v8.171h8.475V317.4H738.149Z" transform="translate(-720.814 -267.645)"/><path class="a" d="M755.946,311.613l-2.513,5.908H750.9l9.606-21.809,9.358,21.809h-2.567l-2.457-5.908Zm4.5-10.49-3.561,8.337h7.039Z" transform="translate(-719.094 -267.763)"/><path class="a" d="M787.072,301.186a8.908,8.908,0,0,0-6.349-2.761,8.616,8.616,0,0,0,.054,17.226,9.109,9.109,0,0,0,6.294-2.761v2.871a10.72,10.72,0,0,1-6.21,2.043,10.766,10.766,0,1,1,0-21.532,10.048,10.048,0,0,1,6.21,2.043Z" transform="translate(-716.516 -267.688)"/><path class="a" d="M803.028,305.035v-8.447h2.32V317.4h-2.32V307.189H792.373V317.4h-2.319V296.588h2.319v8.447Z" transform="translate(-713.812 -267.645)"/></g><g transform="translate(577.168 280.213)"><path class="b" d="M786.155,352.1c-37.422,0-66.95-22.893-101.063-49.341q-3.594-2.787-7.264-5.623c-15.467-11.928-31.313-16.606-47.108-13.907-30.295,5.18-50.538,35.926-50.74,36.236l-2.812-1.824c.852-1.315,21.256-32.292,52.987-37.717,16.753-2.864,33.481,2.034,49.719,14.557q3.679,2.836,7.272,5.628C714,320.929,737.2,338.912,763.53,345.812c28.742,7.531,58.561.6,93.84-21.814l1.8,2.83C830.836,344.829,807.242,352.1,786.155,352.1Z" transform="translate(-577.168 -279.128)"/></g></g></svg>