<svg xmlns="http://www.w3.org/2000/svg" width="49.6" height="49.399" viewBox="0 0 49.6 49.399"><defs><style>.a{fill:#fff;}</style></defs><g transform="translate(313.471 -153.575)"><path class="a" d="M-263.871,178.222a24.869,24.869,0,0,1-19.995,24.249,24.539,24.539,0,0,1-27.712-14.936,23.6,23.6,0,0,1,1.236-20.978c3.836-7.185,9.928-11.359,17.943-12.711a27.12,27.12,0,0,1,3.663-.27,1.812,1.812,0,0,1,1.915,1.836,1.823,1.823,0,0,1-1.806,1.949,20.286,20.286,0,0,0-7.741,1.535c-7.08,3.1-11.613,8.363-12.938,16.022a20.712,20.712,0,0,0,13.744,23.05,20.663,20.663,0,0,0,24.2-8.148,19.413,19.413,0,0,0,3.419-13.613c-1.066-8.335-5.477-14.229-13.316-17.448-1.211-.5-1.732-1.356-1.416-2.423a1.71,1.71,0,0,1,2.358-1.245,28.236,28.236,0,0,1,4.777,2.319,24.738,24.738,0,0,1,11.13,16.346C-264.1,175.22-264.044,176.733-263.871,178.222Z"/><path class="a" d="M-201.671,260.725h.7c2.93,0,5.859-.006,8.789,0a1.817,1.817,0,0,1,1.866,1.706,1.817,1.817,0,0,1-1.237,2,3.206,3.206,0,0,1-.935.1q-4.216.01-8.432,0h-.748v.711c0,2.949.006,5.9,0,8.846a1.826,1.826,0,0,1-1.712,1.8,1.842,1.842,0,0,1-2.012-1.3,3.129,3.129,0,0,1-.07-.822q-.008-4.245,0-8.49v-.741h-.722c-2.93,0-5.859.008-8.789-.007a1.83,1.83,0,0,1-1.864-1.773,1.854,1.854,0,0,1,1.439-1.98,3.089,3.089,0,0,1,.707-.051q4.246,0,8.492,0h.738v-.66q0-4.3,0-8.609a1.928,1.928,0,0,1,1.879-2.134,1.94,1.94,0,0,1,1.924,2.16C-201.669,254.531-201.671,257.578-201.671,260.725Z" transform="translate(-85.12 -84.357)"/></g></svg>