<svg xmlns="http://www.w3.org/2000/svg" width="28.8" height="28.8" viewBox="0 0 28.8 28.8"><defs><style>.a{fill:#bfa94f;}</style></defs><path class="a" d="M20.852,0H7.948A7.957,7.957,0,0,0,0,7.948v12.9A7.957,7.957,0,0,0,7.948,28.8h12.9A7.957,7.957,0,0,0,28.8,20.852V7.948A7.957,7.957,0,0,0,20.852,0Zm5.393,20.852a5.4,5.4,0,0,1-5.393,5.392H7.948a5.4,5.4,0,0,1-5.392-5.392V7.948A5.4,5.4,0,0,1,7.948,2.555h12.9a5.4,5.4,0,0,1,5.393,5.392v12.9Z"/><path class="a" d="M48.389,40.97a7.421,7.421,0,1,0,7.421,7.421A7.429,7.429,0,0,0,48.389,40.97Zm0,12.286a4.866,4.866,0,1,1,4.866-4.865A4.871,4.871,0,0,1,48.389,53.256Z" transform="translate(-33.989 -33.991)"/><path class="a" d="M120.795,28.251a1.873,1.873,0,1,0,1.325.549A1.881,1.881,0,0,0,120.795,28.251Z" transform="translate(-98.663 -23.438)"/></svg>