<svg xmlns="http://www.w3.org/2000/svg" width="263.533" height="86.048" viewBox="0 0 263.533 86.048"><defs><style>.a{fill:#adbf00;}.b{fill:#165425;}</style></defs><path class="a" d="M116.356,87.976H99.677v16.672a16.7,16.7,0,0,0,16.679,16.688h16.668V104.648a16.692,16.692,0,0,0-16.668-16.672m0,7.091a9.587,9.587,0,0,1,9.583,9.582v9.591h-9.583a9.584,9.584,0,0,1-9.587-9.591V95.067Z" transform="translate(-99.677 -87.976)"/><path class="b" d="M160.327,122.48h8.3v5.914h.118a11.252,11.252,0,0,1,10.161-6.77,6.441,6.441,0,0,1,1.9.306v8.119a15.689,15.689,0,0,0-3.133-.309c-6.4,0-8.619,4.615-8.619,10.212v14.323h-8.724Z" transform="translate(-95.578 -85.702)"/><path class="b" d="M201.761,134.968c-.809-4.429-2.715-6.759-6.951-6.759a6.879,6.879,0,0,0-7.257,6.759Zm-14.208,5.538c.237,5.536,2.952,8.057,7.8,8.057,3.507,0,6.335-2.148,6.887-4.123h7.694c-2.462,7.506-7.694,10.7-14.879,10.7-10.03,0-16.239-6.883-16.239-16.725,0-9.536,6.574-16.791,16.239-16.791,10.817,0,16.045,9.113,15.43,18.88Z" transform="translate(-94.329 -85.702)"/><path class="b" d="M231.772,138.723c-1.473,1.295-4.545,1.345-7.251,1.84-2.7.557-5.168,1.489-5.168,4.677,0,3.257,2.521,4.062,5.351,4.062,6.824,0,7.068-5.409,7.068-7.327ZM211.6,132.26c.494-8.168,7.815-10.632,14.948-10.632,6.332,0,13.956,1.406,13.956,9.041v16.537c0,2.889.3,5.782,1.1,7.074h-8.843a12.759,12.759,0,0,1-.623-3.072c-2.768,2.886-6.827,3.933-10.691,3.933-6.036,0-10.832-3.008-10.832-9.529,0-7.2,5.415-8.919,10.832-9.655,5.338-.8,10.322-.613,10.322-4.184,0-3.754-2.581-4.31-5.66-4.31-3.319,0-5.47,1.355-5.769,4.8Z" transform="translate(-92.18 -85.702)"/><rect class="b" width="8.727" height="43.909" transform="translate(153.802 24.666)"/><path class="b" d="M263.8,143.95c.058,3.814,3.261,5.353,6.7,5.353,2.522,0,5.718-.99,5.718-4.062,0-2.648-3.63-3.569-9.892-4.923-5.041-1.108-10.1-2.892-10.1-8.49,0-8.114,7.013-10.2,13.837-10.2,6.957,0,13.349,2.334,14.033,10.141h-8.3c-.263-3.378-2.841-4.311-5.968-4.311-1.969,0-4.868.375-4.868,2.959,0,3.134,4.928,3.57,9.909,4.735,5.1,1.166,10.093,3.016,10.093,8.919,0,8.367-7.262,11.067-14.53,11.067-7.375,0-14.574-2.762-14.941-11.19Z" transform="translate(-89.147 -85.702)"/><path class="b" d="M307.935,134.968c-.792-4.429-2.717-6.759-6.95-6.759a6.879,6.879,0,0,0-7.256,6.759Zm-14.206,5.538c.24,5.536,2.943,8.057,7.807,8.057,3.509,0,6.335-2.148,6.892-4.123h7.691c-2.468,7.506-7.691,10.7-14.89,10.7-10.021,0-16.236-6.883-16.236-16.725,0-9.536,6.581-16.791,16.236-16.791,10.827,0,16.053,9.113,15.436,18.88Z" transform="translate(-87.153 -85.702)"/><path class="b" d="M339.776,133.688c-.55-3.579-2.829-5.478-6.458-5.478-5.6,0-7.446,5.661-7.446,10.327,0,4.547,1.787,10.025,7.259,10.025,4.058,0,6.4-2.587,6.955-6.451h8.426c-1.113,8.423-6.95,13.034-15.311,13.034-9.6,0-16.057-6.762-16.057-16.3,0-9.9,5.907-17.215,16.241-17.215,7.5,0,14.386,3.93,14.943,12.06Z" transform="translate(-84.981 -85.702)"/><path class="b" d="M160.327,160.317h5.945v.958h-4.8v2.745h4.479v.966H161.47v2.984H166.3v.957h-5.977Z" transform="translate(-95.578 -83.087)"/><path class="b" d="M167.145,160.317h1.566l2.723,7.236,2.733-7.236h1.563v8.61h-1.088v-7.17h-.019l-2.694,7.17h-.976l-2.7-7.17h-.028v7.17h-1.083Z" transform="translate(-95.117 -83.087)"/><path class="b" d="M178.013,164.44h2.25c1.29.011,1.886-.553,1.886-1.579s-.6-1.585-1.886-1.585h-2.25Zm-1.153-4.123h3.787a2.547,2.547,0,1,1,0,5.089h-2.634v3.522H176.86Z" transform="translate(-94.461 -83.087)"/><path class="b" d="M187.631,164.283c1.07,0,1.992-.274,1.992-1.532a1.364,1.364,0,0,0-1.533-1.475h-2.86v3.007Zm-3.538-3.966h4.048c1.621,0,2.623.879,2.623,2.252a2.063,2.063,0,0,1-1.488,2.186v.025c.995.193,1.2.932,1.284,1.771a4.309,4.309,0,0,0,.509,2.377h-1.289c-.319-.335-.145-1.271-.305-2.116-.125-.85-.323-1.564-1.434-1.564H185.23v3.68h-1.137Z" transform="translate(-93.972 -83.087)"/><path class="b" d="M191.725,160.317h5.961v.958h-4.8v2.745h4.479v.966h-4.479v2.984h4.844v.957h-6Z" transform="translate(-93.456 -83.087)"/><path class="b" d="M198.532,160.317H204.5v.958h-4.819v2.745h4.487v.966h-4.487v2.984h4.846v.957h-5.991Z" transform="translate(-92.996 -83.087)"/><path class="b" d="M205.331,160.317h1.214l4.537,6.99h.029v-6.99H212.2v8.61h-1.256l-4.513-6.91h-.015v6.91h-1.082Z" transform="translate(-92.537 -83.087)"/><path class="b" d="M214.542,167.97h1.906c.788,0,2.9-.218,2.9-3.395,0-2.057-.755-3.3-2.877-3.3h-1.929Zm-1.147-7.653h2.956c2.659,0,4.152,1.317,4.152,4.1,0,2.888-1.265,4.508-4.152,4.508h-2.956Z" transform="translate(-91.992 -83.087)"/><rect class="b" width="1.153" height="8.616" transform="translate(129.834 77.225)"/><path class="b" d="M224.09,160.317h1.575l2.714,7.236,2.728-7.236h1.583v8.61H231.6v-7.17h-.027l-2.688,7.17h-.993l-2.689-7.17h-.021v7.17H224.09Z" transform="translate(-91.269 -83.087)"/><path class="b" d="M233.82,160.317h5.95v.958h-4.806v2.745h4.483v.966h-4.483v2.984H239.8v.957H233.82Z" transform="translate(-90.612 -83.087)"/><path class="b" d="M240.605,160.317h1.217l4.549,6.99h.022v-6.99h1.089v8.61h-1.258l-4.506-6.91h-.02v6.91h-1.093Z" transform="translate(-90.153 -83.087)"/><path class="b" d="M250.693,161.275h-2.876v-.958h6.9v.958H251.84v7.652h-1.148Z" transform="translate(-89.666 -83.087)"/><path class="b" d="M258.743,168.185c2.111,0,2.974-1.813,2.974-3.546s-.864-3.548-2.974-3.548-2.99,1.814-2.99,3.548.884,3.546,2.99,3.546m0-8.066c2.739,0,4.125,2.173,4.125,4.519s-1.386,4.511-4.125,4.511-4.129-2.168-4.129-4.511,1.387-4.519,4.129-4.519" transform="translate(-89.206 -83.101)"/><path class="b" d="M268.574,162.852a1.884,1.884,0,0,0-2.135-1.762c-.969,0-1.934.343-1.934,1.466,0,1.062,1.376,1.217,2.764,1.538s2.749.8,2.749,2.489c0,1.833-1.8,2.565-3.366,2.565-1.932,0-3.565-.937-3.565-3.038h1.09c0,1.448,1.2,2.074,2.514,2.074,1.041,0,2.179-.321,2.179-1.569,0-1.184-1.379-1.381-2.749-1.687s-2.765-.707-2.765-2.286c0-1.753,1.56-2.524,3.131-2.524,1.76,0,3.1.834,3.176,2.733Z" transform="translate(-88.634 -83.101)"/><rect class="b" width="1.146" height="8.616" transform="translate(185.948 77.225)"/><path class="b" d="M276.651,160.317h1.576l2.7,7.236,2.736-7.236h1.57v8.61h-1.08v-7.17h-.027l-2.695,7.17h-.985l-2.688-7.17h-.029v7.17h-1.082Z" transform="translate(-87.717 -83.087)"/><path class="b" d="M290.054,168.185c2.1,0,2.977-1.813,2.977-3.546s-.882-3.548-2.977-3.548-2.984,1.814-2.984,3.548.878,3.546,2.984,3.546m0-8.066c2.739,0,4.132,2.173,4.132,4.519s-1.392,4.511-4.132,4.511-4.137-2.168-4.137-4.511,1.39-4.519,4.137-4.519" transform="translate(-87.091 -83.101)"/><path class="b" d="M296.009,167.97h2.88a1.475,1.475,0,0,0,1.608-1.549c0-1.122-.9-1.435-1.863-1.435h-2.625Zm0-3.95h2.3c1.307,0,1.84-.475,1.84-1.381,0-1.188-.847-1.363-1.84-1.363h-2.3Zm-1.153-3.7H298a5.241,5.241,0,0,1,2.275.31,2.036,2.036,0,0,1,1.018,1.792,1.984,1.984,0,0,1-1.279,1.934v.02a2,2,0,0,1,1.643,2.084,2.448,2.448,0,0,1-2.622,2.47h-4.175Z" transform="translate(-86.487 -83.087)"/><rect class="b" width="1.157" height="8.616" transform="translate(216.584 77.225)"/><path class="b" d="M305.318,160.317h1.149v7.653h4.567v.957h-5.716Z" transform="translate(-85.78 -83.087)"/><rect class="b" width="1.153" height="8.616" transform="translate(226.189 77.225)"/><path class="b" d="M317.662,158.119h1.312l-1.582,1.725h-.778Zm-1.791,7.4H318.8l-1.444-4.014h-.021Zm.859-5.049H318l3.372,8.611H320.1l-.936-2.591h-3.646l-.969,2.591h-1.192Z" transform="translate(-85.237 -83.236)"/><path class="b" d="M325.08,164.283c1.083,0,1.993-.274,1.993-1.532a1.362,1.362,0,0,0-1.53-1.475h-2.857v3.007Zm-3.542-3.966h4.068c1.616,0,2.621.879,2.621,2.252a2.069,2.069,0,0,1-1.5,2.186v.025c1,.193,1.205.932,1.3,1.771a4.309,4.309,0,0,0,.5,2.377h-1.284c-.32-.335-.148-1.271-.309-2.116-.126-.85-.325-1.564-1.439-1.564h-2.807v3.68h-1.149Z" transform="translate(-84.683 -83.087)"/><rect class="b" width="1.153" height="8.616" transform="translate(245.066 77.225)"/><path class="b" d="M335.679,168.185c2.108,0,2.981-1.813,2.981-3.546s-.872-3.548-2.981-3.548-2.981,1.814-2.981,3.548.885,3.546,2.981,3.546m0-8.066c2.743,0,4.129,2.173,4.129,4.519s-1.387,4.511-4.129,4.511-4.127-2.168-4.127-4.511,1.387-4.519,4.127-4.519" transform="translate(-84.007 -83.101)"/><path class="b" d="M345.513,162.852a1.887,1.887,0,0,0-2.136-1.762c-.965,0-1.938.343-1.938,1.466,0,1.062,1.387,1.217,2.763,1.538s2.765.8,2.765,2.489c0,1.833-1.8,2.565-3.382,2.565-1.922,0-3.558-.937-3.558-3.038h1.089c0,1.448,1.2,2.074,2.513,2.074,1.041,0,2.185-.321,2.185-1.569,0-1.184-1.375-1.381-2.754-1.687s-2.767-.707-2.767-2.286c0-1.753,1.558-2.524,3.133-2.524,1.765,0,3.108.834,3.172,2.733Z" transform="translate(-83.434 -83.101)"/><path class="b" d="M147.914,99.277H131.536a16.314,16.314,0,0,1,.731,4.609v2.49h15.646v59.67h-29.84V120.573h-2.481a16.626,16.626,0,0,1-4.622-.736v53.305h44.042V99.277Z" transform="translate(-98.914 -87.212)"/></svg>