<svg xmlns="http://www.w3.org/2000/svg" width="30" height="30" viewBox="0 0 30 30"><defs><style>.a{fill:#bfa94f;}</style></defs><path class="a" d="M15,0A15,15,0,0,0,2.271,22.94c-.592,2.076-1.663,6-1.674,6.043a.577.577,0,0,0,.726.7l5.946-1.829A15,15,0,1,0,15,0Zm0,28.846A13.812,13.812,0,0,1,7.655,26.74a.577.577,0,0,0-.306-.088.587.587,0,0,0-.17.025l-5.192,1.6c.381-1.392,1.067-3.882,1.464-5.267a.579.579,0,0,0-.07-.474A13.847,13.847,0,1,1,15,28.846Z"/><path class="a" d="M28.75,22.67c-1.065-.591-1.972-1.184-2.634-1.617-.505-.33-.871-.568-1.138-.7a1.311,1.311,0,0,0-1.531.108.577.577,0,0,0-.072.088,8.11,8.11,0,0,1-2.089,2.341,13.891,13.891,0,0,1-3.547-2.3c-1.63-1.359-2.656-2.66-2.807-3.546,1.046-1.077,1.423-1.754,1.423-2.525,0-.794-1.853-4.111-2.188-4.446s-1.094-.388-2.252-.158a.583.583,0,0,0-.295.158c-.14.14-3.421,3.485-1.862,7.538,1.711,4.449,6.1,9.62,11.7,10.46a12.135,12.135,0,0,0,1.791.143c3.294,0,5.238-1.657,5.786-4.945A.575.575,0,0,0,28.75,22.67Zm-7.117,4.261c-5.922-.888-9.651-6.755-10.8-9.733-1.137-2.954.959-5.588,1.486-6.183a4.352,4.352,0,0,1,1.067-.074A20.72,20.72,0,0,1,15.2,14.52c0,.3-.1.725-1.273,1.9a.574.574,0,0,0-.169.408c0,3.021,6.372,7.212,7.5,7.212.981,0,2.261-1.649,2.99-2.724a.547.547,0,0,1,.214.067c.208.1.568.339,1.023.637.6.393,1.4.914,2.342,1.455C27.4,25.534,26.2,27.617,21.633,26.931Z" transform="translate(-3.951 -4.136)"/></svg>