<svg xmlns="http://www.w3.org/2000/svg" width="232.709" height="67.748" viewBox="0 0 232.709 67.748"><defs><style>.a{fill:#afaa7e;}.b{fill:#bfa94f;}</style></defs><g transform="translate(-58 -123.749)"><g transform="translate(87.814 178.76)"><path class="a" d="M223.066,428.741h1.891a1.734,1.734,0,0,1,1.25.44,1.213,1.213,0,0,1,.339.867v.013a1.287,1.287,0,0,1-1.193,1.281l1.35,1.8h-.609l-1.275-1.709h-1.257v1.709h-.5Zm1.847,2.243c.659,0,1.13-.339,1.13-.9v-.012c0-.54-.414-.867-1.124-.867h-1.357v1.784Z" transform="translate(-223.066 -428.666)"/><path class="a" d="M251.339,428.741h3.178v.452h-2.682v1.5h2.4v.452h-2.4v1.539h2.714v.452h-3.21Z" transform="translate(-246.232 -428.666)"/><path class="a" d="M276.172,432.212l.308-.364a2.1,2.1,0,0,0,1.508.622c.591,0,.98-.314.98-.748v-.013c0-.408-.22-.641-1.143-.836-1.012-.22-1.476-.546-1.476-1.269v-.013a1.3,1.3,0,0,1,1.445-1.2,2.3,2.3,0,0,1,1.546.54l-.289.383a1.931,1.931,0,0,0-1.269-.477c-.572,0-.936.314-.936.71v.013c0,.415.226.647,1.194.854s1.432.572,1.432,1.244v.013c0,.754-.628,1.244-1.5,1.244A2.574,2.574,0,0,1,276.172,432.212Z" transform="translate(-266.58 -428.381)"/><path class="a" d="M303.4,428.741h.5v4.4h-.5Z" transform="translate(-288.893 -428.666)"/><path class="a" d="M316.412,428.741h1.527a2.192,2.192,0,0,1,2.337,2.186v.012a2.2,2.2,0,0,1-2.337,2.2h-1.527Zm1.527,3.939a1.7,1.7,0,0,0,1.821-1.728v-.013a1.711,1.711,0,0,0-1.821-1.74h-1.031v3.48Z" transform="translate(-299.552 -428.666)"/><path class="a" d="M346.74,428.741h3.179v.452h-2.682v1.5h2.4v.452h-2.4v1.539h2.714v.452h-3.21Z" transform="translate(-324.403 -428.666)"/><path class="a" d="M373.173,428.741h.465l2.77,3.524v-3.524h.484v4.4h-.4l-2.84-3.606v3.606h-.483Z" transform="translate(-346.061 -428.666)"/><path class="a" d="M402.7,430.611V430.6a2.216,2.216,0,0,1,2.224-2.274,2.29,2.29,0,0,1,1.715.7l-.339.364a1.912,1.912,0,0,0-1.382-.6,1.724,1.724,0,0,0-1.7,1.8v.012a1.735,1.735,0,0,0,1.7,1.816,1.91,1.91,0,0,0,1.42-.634l.326.32a2.288,2.288,0,0,1-1.759.773A2.193,2.193,0,0,1,402.7,430.611Z" transform="translate(-370.253 -428.324)"/><path class="a" d="M432.819,428.741h.5v4.4h-.5Z" transform="translate(-394.934 -428.666)"/><path class="a" d="M445.743,428.568h.465l2,4.429h-.534l-.515-1.162h-2.393L444.248,433h-.509Zm1.225,2.82-1-2.243-1.005,2.243Z" transform="translate(-403.882 -428.524)"/><path class="a" d="M476.431,428.741h.5v3.939H479.4v.459h-2.971Z" transform="translate(-430.669 -428.666)"/></g><g transform="translate(194.457 123.749)"><path class="a" d="M813.508,128.289h8.908v1.777h-6.994v5.1h6.788v1.777h-6.788v6.743h6.994v1.777h-8.908Z" transform="translate(-813.508 -127.469)"/><path class="a" d="M883.764,136.87l-2.073,4.875h-2.1l7.928-18,7.722,18h-2.118L891.1,136.87Zm3.713-8.657-2.939,6.88h5.809Z" transform="translate(-867.659 -123.749)"/><path class="a" d="M995.569,135.489c.045,2.323-.205,4.237-1.777,6.06a8.487,8.487,0,0,1-6.356,2.87,8.885,8.885,0,1,1,7.38-14.056l-1.389,1.3a6.983,6.983,0,0,0-5.9-3.235,7.127,7.127,0,0,0-7.016,7.176,6.923,6.923,0,0,0,2,4.852,7.22,7.22,0,0,0,4.875,2.187c2.984,0,6.128-2.187,6.128-5.376h-5.1v-1.777Z" transform="translate(-948.78 -126.126)"/><path class="a" d="M1097.044,143.689h4.739v1.777h-6.651V128.289h1.913Z" transform="translate(-1044.265 -127.469)"/><path class="a" d="M1149.989,128.289h8.908v1.777H1151.9v5.1h6.788v1.777H1151.9v6.743h6.994v1.777h-8.908Z" transform="translate(-1089.215 -127.469)"/><path class="a" d="M813.508,255.984h2.825c3.121,0,5.741,1.139,5.741,4.647a3.811,3.811,0,0,1-1.686,3.349,4.366,4.366,0,0,1,3.257,4.4c0,3.417-2.756,4.784-6.151,4.784h-3.987Zm1.914,7.563h.728c2.165,0,4.01-.25,4.01-2.916,0-2.6-1.641-2.87-3.987-2.87h-.751Zm0,7.837h1.913c2.142,0,4.4-.524,4.4-3.144,0-2.665-2.551-3.052-4.647-3.052h-1.663Z" transform="translate(-813.508 -232.1)"/><path class="a" d="M892.711,255.984h8.907v1.777h-6.994v5.1h6.788v1.777h-6.788v6.743h6.994v1.777h-8.907Z" transform="translate(-878.406 -232.1)"/><path class="a" d="M962.966,264.565l-2.073,4.875h-2.1l7.927-18,7.722,18h-2.119l-2.027-4.875Zm3.714-8.656-2.938,6.88h5.808Z" transform="translate(-932.556 -228.38)"/><path class="a" d="M1072,258.4a7.35,7.35,0,0,0-5.239-2.278,7.109,7.109,0,0,0,.045,14.215,7.518,7.518,0,0,0,5.194-2.278v2.369a8.844,8.844,0,0,1-5.125,1.686,8.885,8.885,0,1,1,0-17.769,8.293,8.293,0,0,1,5.125,1.686Z" transform="translate(-1013.779 -230.757)"/><path class="a" d="M1172.55,262.955v-6.971h1.913V273.16h-1.913v-8.429h-8.793v8.429h-1.914V255.984h1.914v6.971Z" transform="translate(-1098.928 -232.1)"/></g><g transform="translate(58 131.281)"><path class="b" d="M230.458,225.667c-30.88,0-55.247-18.892-83.4-40.717q-2.965-2.3-5.995-4.64c-12.764-9.844-25.839-13.7-38.874-11.477-25,4.275-41.7,29.646-41.87,29.9L58,197.23c.7-1.086,17.542-26.648,43.726-31.124,13.824-2.364,27.629,1.678,41.029,12.013q3.035,2.34,6,4.644c22.162,17.183,41.3,32.023,63.032,37.716,23.718,6.215,48.326.5,77.438-18l1.484,2.335C267.329,219.667,247.859,225.667,230.458,225.667Z" transform="translate(-58 -165.451)"/></g></g></svg>