<svg xmlns="http://www.w3.org/2000/svg" width="304" height="151.92" viewBox="0 0 304 151.92"><defs><style>.a{fill:#afaa7e;}.b{fill:#bfa94f;}</style></defs><g transform="translate(-92.749 -106.137)"><g transform="translate(213.035 252.115)"><path class="a" d="M388.419,465.2h2.47a2.265,2.265,0,0,1,1.633.574,1.588,1.588,0,0,1,.443,1.133v.017a1.681,1.681,0,0,1-1.559,1.674l1.764,2.347h-.8l-1.666-2.232h-1.641v2.232h-.648Zm2.413,2.93c.862,0,1.477-.443,1.477-1.182v-.016c0-.706-.541-1.133-1.469-1.133h-1.773v2.331Z" transform="translate(-388.419 -465.104)"/><path class="a" d="M404.819,465.2h4.152v.591h-3.5v1.961H408.6v.591h-3.135v2.01h3.545v.591h-4.193Z" transform="translate(-398.147 -465.104)"/><path class="a" d="M419.22,469.99l.4-.476a2.736,2.736,0,0,0,1.969.813c.772,0,1.281-.411,1.281-.976v-.017c0-.533-.287-.837-1.494-1.092-1.321-.287-1.928-.714-1.928-1.657v-.017A1.7,1.7,0,0,1,421.337,465a3,3,0,0,1,2.018.706l-.377.5a2.525,2.525,0,0,0-1.658-.624c-.746,0-1.223.41-1.223.927v.017c0,.542.3.845,1.559,1.116,1.28.279,1.871.747,1.871,1.625v.016c0,.985-.821,1.625-1.962,1.625A3.361,3.361,0,0,1,419.22,469.99Z" transform="translate(-406.689 -464.984)"/><path class="a" d="M435.014,465.2h.648v5.745h-.648Z" transform="translate(-416.058 -465.104)"/><path class="a" d="M442.557,465.2h1.994a2.863,2.863,0,0,1,3.052,2.856v.016a2.876,2.876,0,0,1-3.052,2.873h-1.994Zm1.994,5.146a2.223,2.223,0,0,0,2.38-2.257v-.017a2.236,2.236,0,0,0-2.38-2.273h-1.346v4.546Z" transform="translate(-420.532 -465.104)"/><path class="a" d="M460.147,465.2H464.3v.591h-3.5v1.961h3.135v.591H460.8v2.01h3.545v.591h-4.193Z" transform="translate(-430.966 -465.104)"/><path class="a" d="M475.477,465.2h.607l3.619,4.6v-4.6h.632v5.745h-.517l-3.709-4.711v4.711h-.632Z" transform="translate(-440.06 -465.104)"/><path class="a" d="M492.6,467.947v-.017a2.894,2.894,0,0,1,2.906-2.971,2.989,2.989,0,0,1,2.24.911l-.443.476a2.5,2.5,0,0,0-1.805-.788,2.252,2.252,0,0,0-2.224,2.355v.016A2.267,2.267,0,0,0,495.5,470.3a2.5,2.5,0,0,0,1.855-.829l.427.418a2.992,2.992,0,0,1-2.3,1.01A2.865,2.865,0,0,1,492.6,467.947Z" transform="translate(-450.217 -464.96)"/><path class="a" d="M510.07,465.2h.648v5.745h-.648Z" transform="translate(-460.579 -465.104)"/><path class="a" d="M519.021,465.1h.607l2.618,5.785h-.7l-.673-1.518h-3.126l-.681,1.518H516.4Zm1.6,3.685-1.3-2.93L518,468.787Z" transform="translate(-464.336 -465.044)"/><path class="a" d="M535.364,465.2h.648v5.146h3.233v.6h-3.881Z" transform="translate(-475.583 -465.104)"/></g><g transform="translate(132.51 106.137)"><path class="a" d="M193.743,113.365v18.6h20.642v3.056H193.743v23.426h21.185v3.056H190.484v-51.2h24.444v3.056Z" transform="translate(-190.484 -108.612)"/><path class="a" d="M282.619,142.192l-6.858,16.84h-3.327l21.457-52.895,21.389,52.895h-3.327l-6.858-16.84Zm11.271-27.771-10.049,24.715h20.03Z" transform="translate(-239.095 -106.137)"/><path class="a" d="M445.67,135.869c.136,6.451-.815,12.087-5.364,17.043a26.8,26.8,0,0,1-19.42,8.284c-14.191,0-26.278-11.95-26.278-26.074a26.6,26.6,0,0,1,26.685-26.481c9.3,0,16.839,4.617,22.2,11.95l-2.648,2.1c-4.549-6.79-11.475-11-19.759-11-12.494,0-23.222,10.932-23.222,23.222a23.388,23.388,0,0,0,23.222,23.222,24.452,24.452,0,0,0,15.074-5.636c4.413-3.735,6.043-8.012,6.246-13.58H424.078v-3.056Z" transform="translate(-311.566 -107.622)"/><path class="a" d="M552.924,158.451h13.037v3.056h-16.3v-51.2h3.259Z" transform="translate(-403.541 -108.612)"/><path class="a" d="M617.517,113.365v18.6h20.642v3.056H617.517v23.426H638.7v3.056H614.258v-51.2H638.7v3.056Z" transform="translate(-441.856 -108.612)"/><path class="a" d="M190.484,330.5V279.3h10.253c3.871,0,7.537.272,10.593,2.988,3.123,2.716,4.277,6.519,4.277,10.592,0,4.685-1.833,8.148-5.907,10.457a12.866,12.866,0,0,1,10.593,12.9,13.51,13.51,0,0,1-4.753,10.593c-3.6,3.056-7.4,3.667-11.95,3.667Zm3.259-27.975h5.636c3.463,0,6.247.2,9.166-1.9s3.8-4.685,3.8-8.216a9.622,9.622,0,0,0-4.21-8.42c-2.58-1.629-5.772-1.629-8.759-1.629h-5.636Zm0,24.919h7.809c3.6,0,7.333.136,10.456-1.969a10.8,10.8,0,0,0,5.025-9.1,10.053,10.053,0,0,0-5.3-9.167c-3.124-1.561-7.4-1.629-10.8-1.629h-7.2Z" transform="translate(-190.484 -208.855)"/><path class="a" d="M298.058,282.36v18.6H318.7v3.055H298.058v23.426h21.185V330.5H294.8V279.3h24.444v3.056Z" transform="translate(-252.361 -208.855)"/><path class="a" d="M386.935,311.187l-6.858,16.839H376.75l21.456-52.895L419.6,328.026h-3.327l-6.858-16.839Zm11.271-27.771-10.049,24.716h20.031Z" transform="translate(-300.972 -206.381)"/><path class="a" d="M542.653,288.771a23.362,23.362,0,0,0-17.179-8.08c-12.765,0-23.289,11-23.289,23.562a22.288,22.288,0,0,0,6.857,15.821c4.278,4.074,10.389,7.062,16.432,7.062,5.907,0,13.377-3.191,17.179-7.809v4.481a26.619,26.619,0,0,1-17.043,6.383c-14.259,0-26.685-11.883-26.685-26.21,0-14.531,12.222-26.346,26.753-26.346a25.4,25.4,0,0,1,16.975,6.654Z" transform="translate(-373.444 -207.865)"/><path class="a" d="M674.153,301.032V279.3h3.259v51.2h-3.259V304.088h-31.1V330.5H639.8V279.3h3.259v21.728Z" transform="translate(-457.004 -208.855)"/></g><g transform="translate(92.749 128.886)"><path class="b" d="M318.04,240.718c-40.34,0-72.172-24.68-108.947-53.191q-3.873-3-7.832-6.061c-16.673-12.859-33.759-17.9-50.782-14.992C117.82,172.056,96,205.2,95.781,205.535l-3.032-1.966c.919-1.419,22.916-34.811,57.121-40.659,18.059-3.089,36.094,2.192,53.6,15.693q3.963,3.058,7.839,6.067c28.952,22.447,53.956,41.833,82.342,49.27,30.986,8.119,63.13.647,101.161-23.514l1.939,3.051C366.206,232.881,340.772,240.718,318.04,240.718Z" transform="translate(-92.749 -162.054)"/></g></g></svg>