<svg xmlns="http://www.w3.org/2000/svg" width="36.467" height="36.475" viewBox="0 0 36.467 36.475"><defs><style>.a{fill:#bfa94f;}</style></defs><g transform="translate(-3 -2)"><path class="a" d="M3.618,38.857H38.239a.618.618,0,0,0,.618-.618V20.929a.618.618,0,0,0-.618-.618H21.547V3.618A.618.618,0,0,0,20.929,3H3.618A.618.618,0,0,0,3,3.618V38.239A.618.618,0,0,0,3.618,38.857ZM20.31,27.7a6.807,6.807,0,0,1-6.151-6.151H20.31Zm0,1.244V30.8a9.906,9.906,0,0,1-9.254-9.254h1.859A8.05,8.05,0,0,0,20.31,28.942Zm1.236-7.4H27.7A6.807,6.807,0,0,1,21.547,27.7ZM14.16,20.31A6.807,6.807,0,0,1,20.31,14.16V20.31Zm6.151-7.4a8.05,8.05,0,0,0-7.4,7.4H11.056a9.906,9.906,0,0,1,9.254-9.254ZM9.832,21.547A11.124,11.124,0,0,0,20.31,32.025v5.6H12.86A9.273,9.273,0,0,0,4.236,29v-7.45Zm-5.6,11.165a5.572,5.572,0,0,1,4.909,4.909H4.236Zm6.154,4.909a6.812,6.812,0,0,0-6.154-6.154V30.226a8.05,8.05,0,0,1,7.4,7.4Zm19.835,0a8.05,8.05,0,0,1,7.4-7.4v1.241a6.812,6.812,0,0,0-6.154,6.154Zm2.486,0a5.572,5.572,0,0,1,4.909-4.909v4.909ZM37.621,29A9.273,9.273,0,0,0,29,37.621h-7.45v-5.6A11.124,11.124,0,0,0,32.025,21.547h5.6Zm-6.82-7.45A9.906,9.906,0,0,1,21.547,30.8V28.942a8.05,8.05,0,0,0,7.4-7.4ZM20.31,9.832A11.125,11.125,0,0,0,9.832,20.31h-5.6V12.86A9.273,9.273,0,0,0,12.86,4.236h7.45Zm-8.679-5.6a8.05,8.05,0,0,1-7.4,7.4V10.391a6.812,6.812,0,0,0,6.154-6.154Zm-2.486,0A5.572,5.572,0,0,1,4.236,9.146V4.236Z" transform="translate(0 -0.382)"/><path class="a" d="M35.227,12.78l.561,1.121c.067.135.141.266.219.4l-1.123,3.592a.618.618,0,0,0,.4.775.625.625,0,0,0,.371,0l3.529-1.1,2.1,1.261a3.433,3.433,0,0,0,1.763.488h1.993a3.429,3.429,0,0,0,3.185-4.7l-.345-.861A6.755,6.755,0,0,0,47.762,8.5l3.6-3.6a.619.619,0,0,0,0-.874L49.512,2.181a.619.619,0,0,0-.874,0L45.223,5.6a6.724,6.724,0,0,0-2.462-.948l-.506-.085a6.712,6.712,0,0,0-1.1-.091h-.817a5.742,5.742,0,0,0-5.109,8.307Zm3-1.453a3.2,3.2,0,0,1,3.044-2.236c.1,0,.21,0,.315.015a3.159,3.159,0,0,1,1.45.529l-1.2,1.2.874.874,1.2-1.2a3.159,3.159,0,0,1,.529,1.45,3.2,3.2,0,0,1-2.22,3.358l-5.806,1.815Zm8.506,1.967-.09.224a.627.627,0,0,0,0,.459l.436,1.091a2.192,2.192,0,0,1-2.036,3.007H43.053a2.2,2.2,0,0,1-1.128-.309l-1.157-.694,1.823-.57a4.438,4.438,0,0,0,3.084-4.665A4.389,4.389,0,0,0,44.8,9.625l.569-.569.481.481a.619.619,0,0,0,.874,0l.087-.087a5.5,5.5,0,0,1-.075,3.842Zm2.339-9.8.971.971L46.284,8.226l-.971-.971ZM36.9,7.326a4.469,4.469,0,0,1,3.44-1.616h.817a5.6,5.6,0,0,1,.9.074l.506.085a5.5,5.5,0,0,1,1.771.622L44,6.818a.619.619,0,0,0,0,.874l.49.49-.569.569a4.4,4.4,0,0,0-6.872,2.206l-.52,1.665-.2-.4a4.542,4.542,0,0,1-.393-1.155A4.464,4.464,0,0,1,36.9,7.323Z" transform="translate(-12.072)"/></g></svg>