<svg xmlns="http://www.w3.org/2000/svg" width="36.324" height="38.792" viewBox="0 0 36.324 38.792"><defs><style>.a{fill:#bfa94f;}</style></defs><g transform="translate(0 0)"><path class="a" d="M601.814,401.746c-.51,0-1.045.028-1.576-.005a2.79,2.79,0,0,1-2.782-2.85q-.028-15.29,0-30.581c0-1.839,1.2-2.893,3.19-2.9q10.118-.018,20.234-.005c3.139,0,6.279,0,9.419,0,2.462.005,3.466,1,3.466,3.447q0,14.652,0,29.3c0,2.6-.947,3.544-3.571,3.59-.266,0-.531,0-.737,0-.095.161-.161.221-.166.286-.148,2.157-.147,2.157-2.382,2.154-.349,0-.7-.009-1.046,0-2.771.059-2.256-.2-2.4-2.339H607.843c-.035.054-.11.114-.113.177-.061,1.911.324,2.229-2.351,2.162-.231-.005-.464,0-.7,0C602.239,404.191,602.239,404.191,601.814,401.746ZM615.638,366.6q-7.326,0-14.652,0c-1.86,0-2.371.5-2.371,2.312q-.006,14.652,0,29.3c0,1.816.534,2.35,2.362,2.35q14.652.006,29.3,0c1.754,0,2.312-.551,2.312-2.279q.008-14.71,0-29.421c0-1.746-.533-2.264-2.3-2.265Q622.963,366.6,615.638,366.6ZM603.354,401.8l-.322.3c.247.3.465.815.748.851a20.612,20.612,0,0,0,2.641.041V401.8Zm24.607.035H624.7l.048,1.1h3.211Z" transform="translate(-597.441 -365.406)"/><path class="a" d="M601.15,368.817h27.2v27.14h-27.2c0-.806,0-1.571,0-2.336a2.918,2.918,0,0,0-.815-2.6c-.855-.744-.484-3.107.32-3.969a1.766,1.766,0,0,0,.474-1.064c.04-2.363.03-4.729.007-7.093a1.613,1.613,0,0,0-.265-.95,3.3,3.3,0,0,1-.02-4.707,1.58,1.58,0,0,0,.288-.933C601.172,371.188,601.15,370.069,601.15,368.817Zm1.2,25.945h24.8V370.033H602.227c.143,1.139-.056,2.4.472,3.166,1.121,1.615,1.259,3.185-.067,4.741a1.566,1.566,0,0,0-.274.942q-.032,3.548,0,7.1a1.53,1.53,0,0,0,.281.931,3.251,3.251,0,0,1-.02,4.7,1.272,1.272,0,0,0-.264.723C602.326,393.1,602.348,393.875,602.348,394.762Zm.355-19.129c-.375-.577-.609-1.291-.9-1.314-.87-.066-.727.743-.662,1.259a5.348,5.348,0,0,0,.547,1.337Zm-.293,13.655a2.5,2.5,0,0,0-.117-.914c-.116-.209-.45-.3-.686-.438-.163.393-.478.8-.454,1.18a5.744,5.744,0,0,0,.519,1.487c.207-.138.506-.232.6-.424A2.858,2.858,0,0,0,602.409,389.288Z" transform="translate(-596.628 -364.252)"/><path class="a" d="M611.911,373.08a7.911,7.911,0,1,1-7.86,7.941A7.878,7.878,0,0,1,611.911,373.08Zm-6.693,7.85A6.741,6.741,0,1,0,612,374.258,6.8,6.8,0,0,0,605.218,380.93Z" transform="translate(-595.207 -362.811)"/><path class="a" d="M616.752,380.415c0-1.587-.017-3.174,0-4.761a1.713,1.713,0,1,1,3.413-.056q.046,4.877,0,9.756a1.707,1.707,0,1,1-3.408-.062C616.732,383.667,616.752,382.04,616.752,380.415Zm1.172-.024c0,1.551-.028,3.1.024,4.652.009.3.327.59.5.884.177-.3.5-.59.507-.89q.054-4.592,0-9.188c0-.293-.331-.583-.508-.875-.174.293-.487.582-.5.882C617.9,377.365,617.925,378.878,617.924,380.39Z" transform="translate(-590.916 -362.579)"/><path class="a" d="M615.46,377.617a1.313,1.313,0,0,1,1.611-.218c-.072.27-.066.705-.232.785-.925.448-.661,1.058-.321,1.76a1.832,1.832,0,0,1,.665.067,4.384,4.384,0,0,1,.722.577c-.238.193-.475.387-.714.579a3.508,3.508,0,0,0-.9.765c-.1.173.128.569.254.844.155.34.357.658.539.986-.4,0-.807.015-1.21,0a1.478,1.478,0,0,1-.387-.146l-.892.836.24.051-.122,1.616-1.58-.88c-.388.044-1.106.054-1.03,1.1.013.183-.356.393-.549.591a2.706,2.706,0,0,1-.57-.608,2.629,2.629,0,0,1-.1-.834l-.882-.262-1.614.879-.1-1.519c-.2-.649-.591-1.264-1.495-.625-.135.1-.577-.079-.74-.254-.091-.1.023-.522.17-.688.977-1.1.876-1.509-.452-1.889a.973.973,0,0,1-.553-.59c-.035-.118.284-.43.5-.513a3.13,3.13,0,0,1,.875-.092c.349-.705.61-1.319-.317-1.762-.163-.078-.154-.515-.225-.788a2.658,2.658,0,0,1,.822-.163,2.748,2.748,0,0,1,.789.411l.835-1.095a1.108,1.108,0,0,1-.189-.416,8.686,8.686,0,0,1,.036-1.02c.316.124.628.258.946.372.483.171.97.329,1.456.494l-.083-.448.961-1.313.88,1.555a.938.938,0,0,0,1.485-.479c.076-.152.542-.209.781-.142.12.032.214.451.183.676a3.085,3.085,0,0,1-.4.809Zm-3.855-.712a3.705,3.705,0,0,0-3.748,3.642,3.707,3.707,0,1,0,3.748-3.642Z" transform="translate(-594.811 -362.427)"/></g></svg>