<svg xmlns="http://www.w3.org/2000/svg" width="30.8" height="39.703" viewBox="0 0 30.8 39.703"><defs><style>.a{fill:#bfa94f;}</style></defs><g transform="translate(0 0)"><path class="a" d="M618.867,329.545c-.271-.273-.524-.567-.816-.818-5.025-4.335-9.491-9.132-12.365-15.2-2.23-4.707-2.911-9.56-.694-14.462a15.048,15.048,0,0,1,11.741-9.036,3.827,3.827,0,0,0,.547-.184h3.572c1.267.349,2.573.59,3.79,1.061,7.714,2.985,11.541,11.29,9.016,19.485a31.878,31.878,0,0,1-7.175,11.986c-2.083,2.3-4.415,4.366-6.634,6.539-.2.2-.39.42-.583.632Zm.239-2.63c1.459-1.418,2.895-2.732,4.235-4.135a36.311,36.311,0,0,0,7.74-11.3,14.855,14.855,0,0,0,.989-9.113,13.328,13.328,0,1,0-25.991,5.916,21.746,21.746,0,0,0,1.426,4.207C610.143,318.218,614.352,322.7,619.105,326.915Z" transform="translate(-603.631 -289.842)"/><path class="a" d="M614.869,308.352a7.111,7.111,0,0,1-7.179-7.065,7.154,7.154,0,1,1,7.179,7.065Zm.016-12.2a5.083,5.083,0,0,0-5.137,5.07,5.093,5.093,0,0,0,10.186-.012A5.08,5.08,0,0,0,614.886,296.15Z" transform="translate(-599.41 -285.48)"/></g></svg>