<svg xmlns="http://www.w3.org/2000/svg" width="42.148" height="40.076" viewBox="0 0 42.148 40.076"><defs><style>.a{fill:#bfa94f;}</style></defs><g transform="translate(-2 -2)"><path class="a" d="M17.764,21.4V22.91h1.382V21.4A2.073,2.073,0,0,0,20.4,20.146H21.91V18.764H20.4a2.073,2.073,0,0,0-1.255-1.255V16H17.764v1.509a2.073,2.073,0,0,0-1.255,1.255H15v1.382h1.509A2.073,2.073,0,0,0,17.764,21.4Zm.691-2.637a.691.691,0,1,1-.691.691A.691.691,0,0,1,18.455,18.764Z" transform="translate(-4.018 -4.327)"/><path class="a" d="M31.764,21.4V22.91h1.382V21.4A2.073,2.073,0,0,0,34.4,20.146H35.91V18.764H34.4a2.073,2.073,0,0,0-1.255-1.255V16H31.764v1.509a2.073,2.073,0,0,0-1.255,1.255H29v1.382h1.509A2.073,2.073,0,0,0,31.764,21.4Zm.691-2.637a.691.691,0,1,1-.691.691A.691.691,0,0,1,32.455,18.764Z" transform="translate(-8.344 -4.327)"/><path class="a" d="M17.764,32.4V33.91h1.382V32.4A2.073,2.073,0,0,0,20.4,31.146H21.91V29.764H20.4a2.073,2.073,0,0,0-1.255-1.255V27H17.764v1.509a2.073,2.073,0,0,0-1.255,1.255H15v1.382h1.509A2.073,2.073,0,0,0,17.764,32.4Zm.691-2.637a.691.691,0,1,1-.691.691A.691.691,0,0,1,18.455,29.764Z" transform="translate(-4.018 -7.726)"/><path class="a" d="M31.764,32.4V33.91h1.382V32.4A2.073,2.073,0,0,0,34.4,31.146H35.91V29.764H34.4a2.073,2.073,0,0,0-1.255-1.255V27H31.764v1.509a2.073,2.073,0,0,0-1.255,1.255H29v1.382h1.509A2.073,2.073,0,0,0,31.764,32.4Zm.691-2.637a.691.691,0,1,1-.691.691A.691.691,0,0,1,32.455,29.764Z" transform="translate(-8.344 -7.726)"/><path class="a" d="M8.219,42.076H43.458V40.694h-.691V38.621a.691.691,0,0,0-.691-.691H39.312V9.6h3.455A.691.691,0,0,0,43.452,9l.691-5.528a.691.691,0,0,0-.685-.777H39.312V2H37.93v.691H33.784a.691.691,0,0,0-.685.777L33.79,9a.691.691,0,0,0,.685.605H37.93V37.93H35.166a.691.691,0,0,0-.691.691v2.073H32.987l-.578-3.469,1.306-10.419a2.764,2.764,0,0,0-.622-5.459h-.6l.049-.419a13.355,13.355,0,1,0-26.527,0l.049.419h-.6a2.764,2.764,0,0,0-.622,5.459L6.139,37.224l-.578,3.469H2v1.382Zm26.348-38h8.108l-.518,4.146H35.085ZM27.829,37.93l1.382,2.764H9.337l1.382-2.764Zm8.028,1.382h5.528v1.382H35.857Zm-5.1,1.382L29.374,37.93h1.752l.46,2.764ZM7.383,20.766a11.974,11.974,0,1,1,23.783,0l-.069.58h-.334a2.773,2.773,0,0,0-2.74,2.4l-.509,3.82H11.034l-.509-3.82a2.773,2.773,0,0,0-2.74-2.4H7.451ZM26.875,31.711h-15.2V28.947h15.2ZM5.455,25.493a1.382,1.382,0,1,1,0-2.764H7.785a1.385,1.385,0,0,1,1.369,1.2L10.3,32.5a.628.628,0,0,0,.032.1.6.6,0,0,0,.035.105.664.664,0,0,0,.084.124.6.6,0,0,0,.064.08.7.7,0,0,0,.138.092.778.778,0,0,0,.077.046.683.683,0,0,0,.255.049H27.566a.683.683,0,0,0,.258-.052.671.671,0,0,0,.077-.047.647.647,0,0,0,.138-.091.6.6,0,0,0,.064-.08.664.664,0,0,0,.084-.124.591.591,0,0,0,.035-.106.6.6,0,0,0,.032-.1L29.4,23.926a1.385,1.385,0,0,1,1.367-1.2h2.331a1.382,1.382,0,1,1,0,2.764.691.691,0,0,0-.685.605L31.1,36.548H7.447L6.14,26.1A.691.691,0,0,0,5.455,25.493ZM7.422,37.93H9.174L7.792,40.694H6.962Z"/></g></svg>