<svg xmlns="http://www.w3.org/2000/svg" width="36.324" height="36.17" viewBox="0 0 36.324 36.17"><defs><style>.a{fill:#bfa94f;}</style></defs><g transform="translate(0 0)"><path class="a" d="M320.747,341.5q0-5.194,0-10.388c0-.686.129-.865.76-1.095,5.528-2.008,11.059-4.008,16.579-6.041a2.134,2.134,0,0,1,1.614,0c5.454,2,10.918,3.974,16.377,5.957.94.342.988.412.988,1.421v20.078c0,1.27,0,1.264-1.187,1.75q-8.126,3.324-16.247,6.661a1.564,1.564,0,0,1-1.288.015q-8.246-3.381-16.5-6.724c-1.2-.484-1.1-.478-1.095-1.634Q320.755,346.5,320.747,341.5Zm1.577,9.5c.165-.047.289-.074.408-.117q7.516-2.723,15.032-5.441c.32-.115.36-.286.36-.576q-.009-9.36,0-18.722v-.455c-.148.045-.244.07-.338.1q-7.558,2.734-15.117,5.464c-.329.118-.345.31-.345.589q.009,9.338,0,18.678Zm33.146.013c.01-.137.019-.194.019-.251q0-9.516.009-19.03c0-.3-.134-.393-.376-.481q-7.477-2.7-14.95-5.413c-.145-.053-.294-.089-.443-.133a.747.747,0,0,0-.031.12q0,9.6-.009,19.2c0,.247.117.316.313.384.849.3,1.694.611,2.542.915a2.263,2.263,0,0,0,.3.059v-.557q0-6.155,0-12.308c0-.965.434-1.28,1.32-.954q3.19,1.171,6.377,2.348c.954.354,1,.422,1,1.462,0,4.189.01,8.38-.013,12.569a.766.766,0,0,0,.621.889C353.255,350.186,354.335,350.605,355.471,351.013Zm-31.684,1.168c.208.092.31.143.417.186q7.183,2.927,14.366,5.857a.946.946,0,0,0,.783,0q7.135-2.936,14.274-5.856c.115-.048.225-.11.4-.193-.167-.066-.266-.111-.37-.148q-7.189-2.609-14.382-5.208a1.186,1.186,0,0,0-.74.01c-2.709.966-5.41,1.953-8.114,2.935C328.237,350.56,326.056,351.354,323.786,352.181Zm20.663-17.826c-.012.142-.022.2-.022.256,0,4.03,0,8.06-.009,12.088,0,.279.117.37.348.452,1.614.574,3.225,1.161,4.835,1.741.1.037.211.056.33.086a1.957,1.957,0,0,0,.028-.211q0-6.045.01-12.088c0-.291-.154-.367-.37-.446q-1.844-.664-3.684-1.339C345.443,334.722,344.97,334.547,344.449,334.356Z" transform="translate(-320.743 -323.821)"/><path class="a" d="M333.221,334.5q0,1.855,0,3.71a.9.9,0,0,1-.713,1.051q-3.324,1.309-6.652,2.611c-.854.335-1.329.009-1.33-.9q0-3.688,0-7.377c0-.668.117-.843.722-1.086q3.317-1.329,6.636-2.653c.849-.339,1.335-.01,1.336.9Q333.224,332.622,333.221,334.5Zm-7.114,5.535a1.052,1.052,0,0,0,.181-.016c1.7-.675,3.4-1.358,5.1-2.022.256-.1.256-.267.254-.478q0-2.75,0-5.5c0-.105-.018-.212-.032-.355-1.8.713-3.551,1.4-5.3,2.112a.383.383,0,0,0-.194.285C326.1,336.04,326.107,338.017,326.107,340.035Z" transform="translate(-318.997 -321.098)"/></g></svg>