<svg xmlns="http://www.w3.org/2000/svg" width="38" height="37.886" viewBox="0 0 38 37.886"><defs><style>.a{fill:#bfa94f;}</style></defs><g transform="translate(0 0)"><path class="a" d="M339.6,308.387c-1.187-.95-2.206-1.837-3.309-2.6a2.655,2.655,0,0,0-1.375-.205c-.695-.01-1.308-.174-1.325-.962-.017-.807.619-.979,1.3-.979,1.492,0,2.985-.017,4.476.009.61.01.858-.205.85-.834-.026-1.97-.031-3.941.005-5.911.014-.7-.284-.846-.908-.841-3.3.021-6.589.012-9.882.007-1.324,0-1.57-.255-1.575-1.579a3.382,3.382,0,0,1,.026-1.091,1.987,1.987,0,0,1,.71-1.106q5.979-2.841,12.017-5.56a1.636,1.636,0,0,1,1.2.053c3.945,1.785,7.867,3.619,11.807,5.418a1.337,1.337,0,0,1,.844,1.315c.105,2.42-.009,2.552-2.394,2.552-2.983,0-5.968.029-8.951-.019-.836-.014-1.053.258-1.031,1.056.053,1.885.038,3.772.005,5.66-.01.658.21.9.875.884,1.491-.034,2.983-.015,4.476-.009.632,0,1.215.119,1.263.917.038.648-.405,1.053-1.267.989a2.884,2.884,0,0,0-2.273.851c-.748.676-1.563,1.275-2.463,2a30.083,30.083,0,0,0,3.45,2.666,4.884,4.884,0,0,0,2.308.11c.1,0,.252-.343.265-.534.038-.56.019-1.125.022-1.689.012-1.222.284-1.5,1.477-1.513a10.71,10.71,0,0,1,1.267.009c.788.086,1.115-.178,1.063-1.022-.067-1.122-.024-2.251-.014-3.376.009-.839.393-1.341,1-1.284.775.072.906.651.908,1.286.007,2.394.036,4.788-.01,7.18-.016.829.271,1.068,1.067,1.025,1.124-.06,2.252-.024,3.378-.012.927.01,1.265.343,1.267,1.287.01,3.576,0,7.152.007,10.726,0,.662-.193,1.194-.939,1.265-.593.057-.963-.457-.965-1.315-.009-2.985-.028-5.97.01-8.953.012-.822-.2-1.125-1.081-1.124q-15.966.044-31.927.019c-1.208,0-1.21.005-1.21,1.22q0,4.309,0,8.615c0,.281.065.625-.069.827-.2.293-.56.682-.829.663-.324-.022-.672-.386-.91-.682-.129-.16-.06-.489-.06-.741q-.005-5.152,0-10.3c0-1.28.234-1.5,1.548-1.508,1.1,0,2.2-.036,3.293.014.689.031.865-.241.856-.884-.029-2.28-.01-4.562-.01-6.842,0-.226,0-.452,0-.676.014-.617.283-1.07.931-1.079s.941.433.944,1.055c.01,1.212.057,2.423-.005,3.631-.04.81.277,1.048,1.027.987a14.53,14.53,0,0,1,1.689,0,1,1,0,0,1,1.094,1.108c0,.676.017,1.351.005,2.027-.007.457.183.639.648.67a3.6,3.6,0,0,0,3.088-.948A26.825,26.825,0,0,1,339.6,308.387Zm12.813-14.356.033-.165a4.508,4.508,0,0,0-.539-.35c-3.39-1.568-6.778-3.145-10.189-4.67a1.713,1.713,0,0,0-1.251.055c-3.307,1.482-6.592,3.009-9.882,4.531a7.721,7.721,0,0,0-.713.427l.084.172ZM330.68,311.225c.708.134,1.017-.105,1.012-.884-.005-.712-.174-1.022-.944-.994-.667.022-1.055.117-1.02.925C329.754,310.956,329.873,311.392,330.68,311.225Zm21.839-.96c.186-.826-.29-.889-.953-.92-.791-.036-.9.31-.924,1-.024.793.309.908.994.924C352.411,311.282,352.653,310.979,352.518,310.265Zm-13.112-4.632c1.548,1.68,2.29,1.666,3.378,0Zm3.369,5.546.081-.184c-.474-.381-.936-.781-1.43-1.132a.567.567,0,0,0-.526-.009c-.507.364-.981.776-1.654,1.325Z" transform="translate(-322.156 -286.641)"/><path class="a" d="M332.486,307.534v2.616c0,.617-.25,1.081-.908,1.087-.7.007-.967-.477-.969-1.125-.005-1.21-.029-2.42.009-3.63.021-.641-.174-.939-.855-.9a20.511,20.511,0,0,1-2.109,0c-.67-.033-.882.258-.863.9.034,1.18,0,2.363.007,3.545.007.677-.21,1.234-.956,1.22s-.927-.588-.922-1.258c.014-1.687-.005-3.376.009-5.065.007-.953.312-1.248,1.284-1.255q2.489-.016,4.981,0c1.013.005,1.28.281,1.3,1.325.014.844,0,1.689,0,2.533Z" transform="translate(-320.158 -274.324)"/><path class="a" d="M338.581,307.478c0,.874,0,1.746,0,2.62,0,.645-.274,1.158-.953,1.156s-.956-.5-.956-1.153c0-1.239-.026-2.478,0-3.717.012-.577-.186-.822-.777-.8-.76.029-1.522.019-2.28,0-.541-.012-.757.221-.75.76.016,1.21-.009,2.421,0,3.631.005.657-.143,1.2-.9,1.281-.6.062-.977-.443-.981-1.3q-.013-2.492,0-4.984c.005-.982.331-1.3,1.334-1.3,1.661-.009,3.323-.012,4.982,0,.941.007,1.262.324,1.282,1.272C338.6,305.789,338.583,306.633,338.581,307.478Z" transform="translate(-315.78 -274.325)"/><path class="a" d="M337.034,307.492c0-.844-.012-1.689,0-2.533.017-.941.35-1.279,1.275-1.286q2.533-.016,5.067,0c.924.007,1.26.348,1.267,1.291.012,1.689,0,3.378,0,5.067,0,.676-.236,1.215-.977,1.215-.708,0-.922-.543-.926-1.172-.007-1.21-.026-2.421,0-3.631.012-.6-.174-.891-.817-.862-.731.033-1.465.026-2.2,0-.576-.021-.81.2-.8.791.029,1.182,0,2.365.01,3.547.005.682-.15,1.267-.95,1.343-.6.057-.955-.457-.965-1.32C337.027,309.124,337.034,308.307,337.034,307.492Z" transform="translate(-311.397 -274.325)"/></g></svg>